<svg width="18" height="38" viewBox="0 0 18 38" fill="none" xmlns="http://www.w3.org/2000/svg">
<path d="M8.26562 23.4375C6.9375 23.4375 6.15625 22.5312 6.15625 21.25V21.0312C6.15625 19.1875 7.10938 17.9688 8.95312 16.8906C10.9688 15.6875 11.5781 14.9062 11.5781 13.4688C11.5781 11.9375 10.3906 10.875 8.67188 10.875C7.14062 10.875 6.10938 11.625 5.60938 13.0156C5.21875 14.0156 4.51562 14.4531 3.5625 14.4531C2.32812 14.4531 1.5625 13.6875 1.5625 12.5C1.5625 11.8281 1.71875 11.2344 2.03125 10.6406C3.03125 8.57812 5.53125 7.25 8.89062 7.25C13.3281 7.25 16.3125 9.6875 16.3125 13.3281C16.3125 15.6875 15.1719 17.2969 12.9688 18.5938C10.8906 19.7969 10.4219 20.4688 10.2188 21.7812C9.98438 22.8281 9.375 23.4375 8.26562 23.4375ZM8.29688 30.3906C6.89062 30.3906 5.75 29.3125 5.75 27.9375C5.75 26.5625 6.89062 25.4844 8.29688 25.4844C9.71875 25.4844 10.8594 26.5625 10.8594 27.9375C10.8594 29.3125 9.71875 30.3906 8.29688 30.3906Z" fill="#8D8D8D"/>
</svg>
